Coordinates
version=1
nRows=32
nColumns=22
inDegrees=yes

Units are S.I. units (second, meters, Newtons, ...)
If the header above contains a line with 'inDegrees', this indicates whether rotational values are in degrees (yes) or radians (no).

endheader
time	pelvis_tilt	pelvis_list	pelvis_rotation	pelvis_tx	pelvis_ty	pelvis_tz	hip_flexion_r	hip_adduction_r	hip_rotation_r	knee_angle_r	ankle_angle_r	subtalar_angle_r	hip_flexion_l	hip_adduction_l	hip_rotation_l	knee_angle_l	ankle_angle_l	subtalar_angle_l	lumbar_extension	lumbar_bending	lumbar_rotation
      0.01000000	      2.13040415	      3.38209653	    173.10737999	      0.06299666	      0.93993027	      1.06803577	      1.78517150	      5.05362946	    -10.55939643	     -8.84271676	     10.47498985	     -2.75176067	      8.08272844	     -5.26040164	     -7.13745102	    -22.27358134	     14.56962955	     -2.03528787	     -6.09628601	      0.20158009	     -5.48903628
      0.02000000	      2.15596359	      3.36777964	    173.13970581	      0.06286689	      0.93988844	      1.06808592	      1.76405682	      5.04542187	    -10.59838471	     -8.76642733	     10.45389163	     -2.75173357	      8.09335958	     -5.24414553	     -7.13581227	    -22.24190900	     14.55455491	     -2.02734137	     -6.05574010	      0.17946227	     -5.47916940
      0.03000000	      2.19084077	      3.35945050	    173.21233412	      0.06272946	      0.93983735	      1.06822030	      1.73154642	      5.04663813	    -10.61742144	     -8.65488920	     10.41190139	     -2.74979764	      8.12021235	     -5.22034233	     -7.04463781	    -22.20631713	     14.53014108	     -2.01025308	     -6.00891144	      0.17053329	     -5.52769801
      0.04000000	      2.22937127	      3.35788335	    173.28598622	      0.06252508	      0.93977139	      1.06837658	      1.69280430	      5.05413466	    -10.66358453	     -8.53323487	     10.39738243	     -2.74662335	      8.14809179	     -5.20727981	     -6.97980202	    -22.17748784	     14.53268249	     -2.00151157	     -5.94878211	      0.17294251	     -5.54891321
      0.05000000	      2.27176708	      3.35801327	    173.37237134	      0.06230653	      0.93970219	      1.06856787	      1.65407091	      5.06303829	    -10.72161407	     -8.40602628	     10.37650351	     -2.74335465	      8.18180492	     -5.19321207	     -6.89939899	    -22.14726906	     14.53651153	     -1.99780369	     -5.88569447	      0.17585994	     -5.57350131
      0.06000000	      2.31515578	      3.35720594	    173.46212091	      0.06206537	      0.93963060	      1.06879280	      1.61793963	      5.06778761	    -10.79039827	     -8.28452022	     10.35654631	     -2.73896668	      8.21588893	     -5.17598839	     -6.81714932	    -22.11708452	     14.54152950	     -1.99755897	     -5.82037213	      0.18084911	     -5.59378717
      0.07000000	      2.35970507	      3.35427315	    173.55130168	      0.06181313	      0.93955804	      1.06903981	      1.58780265	      5.06798073	    -10.86519296	     -8.17132043	     10.33888632	     -2.73304175	      8.24920735	     -5.15475067	     -6.73546720	    -22.08442559	     14.54618452	     -1.99969945	     -5.75344512	      0.18409268	     -5.60623074
      0.08000000	      2.39589382	      3.34935420	    173.60767117	      0.06156892	      0.93949813	      1.06924765	      1.56301403	      5.06324712	    -10.91858428	     -8.08312174	     10.34537893	     -2.73023774	      8.26666107	     -5.14001432	     -6.72102948	    -22.05056381	     14.55029892	     -2.00044669	     -5.70174809	      0.17974224	     -5.56076644
      0.09000000	      2.44629056	      3.33679567	    173.69831706	      0.06132860	      0.93942128	      1.06954191	      1.55399929	      5.04859916	    -10.99045467	     -7.99270195	     10.31727698	     -2.72369215	      8.30143125	     -5.09938231	     -6.60565222	    -22.00381439	     14.55267067	     -2.00509785	     -5.63424109	      0.17841190	     -5.59197415
      0.10000000	      2.47996820	      3.33160064	    173.74093669	      0.06110664	      0.93936641	      1.06974656	      1.54464212	      5.04029077	    -11.03592515	     -7.93413203	     10.32495213	     -2.72133833	      8.31313185	     -5.08451245	     -6.60028749	    -21.96735840	     14.55627322	     -2.00645586	     -5.59569617	      0.17562761	     -5.54591266
      0.11000000	      2.51857492	      3.31829036	    173.77736180	      0.06089785	      0.93930765	      1.06995498	      1.54945983	      5.02190823	    -11.07143739	     -7.88805140	     10.32639979	     -2.71983811	      8.32289408	     -5.05674011	     -6.57884719	    -21.91635019	     14.56226486	     -2.00777373	     -5.55666362	      0.16665164	     -5.51163537
      0.12000000	      2.56068679	      3.29556859	    173.79977206	      0.06071790	      0.93924607	      1.07014551	      1.57461617	      4.99220286	    -11.09687585	     -7.86655480	     10.32827820	     -2.71958213	      8.33004437	     -5.01725839	     -6.55295173	    -21.85235767	     14.56603284	     -2.01043102	     -5.52243928	      0.14724421	     -5.47789050
      0.13000000	      2.60560721	      3.25280672	    173.80133967	      0.06059524	      0.93918245	      1.07032363	      1.63835243	      4.93552058	    -11.09452472	     -7.90311871	     10.35280942	     -2.72131379	      8.34238753	     -4.95590638	     -6.53805049	    -21.78918638	     14.54897365	     -2.02259402	     -5.49792133	      0.10443401	     -5.44393521
      0.14000000	      2.64462276	      3.22430159	    173.78773609	      0.06044103	      0.93913223	      1.07046085	      1.68610357	      4.89657510	    -11.08625841	     -7.92607982	     10.37570185	     -2.72652531	      8.33875038	     -4.91606340	     -6.55735303	    -21.72209287	     14.54491174	     -2.03326565	     -5.48294619	      0.07614434	     -5.39517764
      0.15000000	      2.67811264	      3.19498870	    173.76669515	      0.06027651	      0.93909770	      1.07058409	      1.73172391	      4.85639734	    -11.06725402	     -7.95702584	     10.39654808	     -2.73298591	      8.32312814	     -4.87454822	     -6.58281927	    -21.64807403	     14.53748580	     -2.04457317	     -5.47921443	      0.04596896	     -5.35306524
      0.16000000	      2.70633148	      3.16623645	    173.74126762	      0.06009435	      0.93907717	      1.07070097	      1.77336836	      4.81554679	    -11.04472217	     -7.99333510	     10.41730610	     -2.73869180	      8.29736355	     -4.83266514	     -6.61109442	    -21.56981182	     14.52823465	     -2.05739453	     -5.48514662	      0.01589554	     -5.31904050
      0.17000000	      2.73001932	      3.13875343	    173.71602088	      0.05988064	      0.93906953	      1.07082061	      1.80867004	      4.77488473	    -11.02290596	     -8.03088605	     10.43644953	     -2.74174851	      8.26072952	     -4.79031981	     -6.63976788	    -21.48459362	     14.51932932	     -2.07154519	     -5.49696884	     -0.01130875	     -5.29450396
      0.18000000	      2.74850957	      3.11171251	    173.69153935	      0.05963418	      0.93907528	      1.07094149	      1.83531836	      4.73362329	    -11.00406943	     -8.06665338	     10.45460509	     -2.74028127	      8.21353903	     -4.74673989	     -6.66662664	    -21.39437951	     14.51141020	     -2.08730263	     -5.51515222	     -0.03706207	     -5.27782361
      0.19000000	      2.76143133	      3.08667766	    173.67208873	      0.05935206	      0.93909149	      1.07108030	      1.85114774	      4.69204604	    -10.98964579	     -8.09838581	     10.47120220	     -2.73318473	      8.15758518	     -4.70277821	     -6.69065895	    -21.30144640	     14.50627527	     -2.10439486	     -5.53845402	     -0.05860551	     -5.26920740
      0.20000000	      2.76561828	      3.05865416	    173.65549690	      0.05903786	      0.93912342	      1.07122060	      1.85429399	      4.64606281	    -10.97807769	     -8.12728681	     10.49113931	     -2.71796014	      8.08717493	     -4.65351364	     -6.71296922	    -21.20144918	     14.50158629	     -2.12719539	     -5.57167255	     -0.08398897	     -5.26368697
      0.21000000	      2.76209733	      3.03121070	    173.64388292	      0.05869083	      0.93916798	      1.07137200	      1.84478549	      4.59881576	    -10.97021278	     -8.15214656	     10.51153636	     -2.69535173	      8.00566420	     -4.60276136	     -6.73296359	    -21.09874919	     14.50062727	     -2.15530104	     -5.61323421	     -0.10771730	     -5.26401068
      0.22000000	      2.75172184	      3.00194520	    173.63454995	      0.05831358	      0.93922375	      1.07152991	      1.82596665	      4.54769038	    -10.96351093	     -8.17651364	     10.53424389	     -2.66667253	      7.91331571	     -4.54822723	     -6.75232367	    -20.99257690	     14.50339373	     -2.18895750	     -5.66270474	     -0.13257438	     -5.26713949
      0.23000000	      2.73339922	      2.97046606	    173.62606307	      0.05791308	      0.93928891	      1.07168527	      1.79814282	      4.49285115	    -10.95457775	     -8.20180096	     10.56317835	     -2.63169356	      7.80988936	     -4.49075900	     -6.77427988	    -20.88410143	     14.50668086	     -2.23130244	     -5.72348445	     -0.16091271	     -5.26996894
      0.24000000	      2.71499601	      2.93757751	    173.61516710	      0.05748786	      0.93935154	      1.07184742	      1.77329695	      4.43471585	    -10.94118929	     -8.23577720	     10.59445713	     -2.59681272	      7.70466802	     -4.43025094	     -6.79822412	    -20.77604493	     14.51835815	     -2.27634635	     -5.78447363	     -0.18932162	     -5.27355765
      0.25000000	      2.69571569	      2.90288675	    173.60171364	      0.05704717	      0.93940811	      1.07200876	      1.75181852	      4.37352793	    -10.92200185	     -8.27880645	     10.63564925	     -2.56095054	      7.60020912	     -4.36750640	     -6.82403465	    -20.67369697	     14.53249916	     -2.32815766	     -5.84948595	     -0.21880710	     -5.27465522
      0.26000000	      2.67750922	      2.86804523	    173.58567829	      0.05659158	      0.93945121	      1.07217845	      1.73766436	      4.30996242	    -10.89702101	     -8.33483178	     10.68528266	     -2.52461425	      7.49953123	     -4.30328327	     -6.84884355	    -20.57803235	     14.55445287	     -2.38865494	     -5.91560608	     -0.24771715	     -5.27542671
      0.27000000	      2.66337702	      2.83599669	    173.56896388	      0.05612288	      0.93947470	      1.07235838	      1.73362763	      4.24839719	    -10.86838322	     -8.40350888	     10.74403120	     -2.48915849	      7.41055516	     -4.24071829	     -6.86860194	    -20.49787534	     14.58443987	     -2.45773694	     -5.98008418	     -0.27174136	     -5.27826075
      0.28000000	      2.65522947	      2.80927180	    173.55369189	      0.05563896	      0.93947271	      1.07255543	      1.74205684	      4.19067356	    -10.83809353	     -8.48682433	     10.81091463	     -2.45591667	      7.33787121	     -4.18289484	     -6.87905850	    -20.43828284	     14.62553101	     -2.53367268	     -6.04082554	     -0.28748752	     -5.28778601
      0.29000000	      2.66336728	      2.80782431	    173.55025304	      0.05515361	      0.93943325	      1.07277170	      1.76425865	      4.16435527	    -10.79805029	     -8.56805216	     10.83444554	     -2.44569984	      7.30523852	     -4.15528528	     -6.87798049	    -20.42012660	     14.65394753	     -2.56001044	     -6.08888027	     -0.26903370	     -5.33374584
      0.30000000	      2.66042352	      2.77937938	    173.53905839	      0.05461332	      0.93936863	      1.07301468	      1.79503918	      4.09825119	    -10.78753326	     -8.69292204	     10.97517541	     -2.40556018	      7.25602689	     -4.08913081	     -6.86072469	    -20.39778918	     14.75020683	     -2.66955574	     -6.14483375	     -0.28385942	     -5.33832355
      0.31000000	      2.67962270	      2.76960196	    173.54763727	      0.05405393	      0.93926301	      1.07330357	      1.84705560	      4.05450050	    -10.78748292	     -8.81744218	     11.06515792	     -2.35729236	      7.25328485	     -4.04410974	     -6.82952531	    -20.41495232	     14.80907693	     -2.90065133	     -6.17843028	     -0.26677473	     -5.40922352
      0.32000000	      2.68459915	      2.77904204	    173.56309722	      0.05345475	      0.93915255	      1.07361258	      1.87812857	      4.03035905	    -10.76889412	     -8.94274878	     11.15868422	     -2.34296584	      7.24647690	     -4.01890297	     -6.78036668	    -20.46262085	     14.91018137	     -2.94579478	     -6.23407058	     -0.22981058	     -5.46530251
